<mxfile host="app.diagrams.net" modified="2023-12-20T07:32:24.130Z" agent="Mozilla/5.0 (Windows NT 10.0; Win64; x64) AppleWebKit/537.36 (KHTML, like Gecko) Chrome/120.0.0.0 Safari/537.36" etag="7t8e7YkPUl3Ja89OgPSp" version="22.1.11" type="github">
  <diagram name="Page-1" id="2a216829-ef6e-dabb-86c1-c78162f3ba2b">
    <mxGraphModel dx="1434" dy="772" grid="1" gridSize="10" guides="1" tooltips="1" connect="1" arrows="1" fold="1" page="0" pageScale="1" pageWidth="850" pageHeight="1100" background="none" math="0" shadow="0">
      <root>
        <mxCell id="0" />
        <mxCell id="1" parent="0" />
        <mxCell id="TlXBh9cTbxRTWTGTwzo7-36" value="EABL BRANDS / SHOPPER TEAM&amp;nbsp;REQUESTS DISPATCH PROPOSAL" style="rounded=1;whiteSpace=wrap;html=1;fillColor=#fff2cc;verticalAlign=top;strokeColor=#d6b656;labelBackgroundColor=none;fontFamily=Verdana;fontStyle=1;strokeWidth=3;gradientColor=#ffd966;" parent="1" vertex="1">
          <mxGeometry x="31" y="120.5" width="280" height="105" as="geometry" />
        </mxCell>
        <mxCell id="TlXBh9cTbxRTWTGTwzo7-20" value="" style="edgeStyle=orthogonalEdgeStyle;rounded=0;orthogonalLoop=1;jettySize=auto;html=1;strokeColor=#000057;labelBackgroundColor=none;fontColor=#0c032b;fontFamily=Verdana;fontStyle=1" parent="1" source="7a84cebc1def654-4" target="TlXBh9cTbxRTWTGTwzo7-19" edge="1">
          <mxGeometry relative="1" as="geometry" />
        </mxCell>
        <mxCell id="7a84cebc1def654-4" value="Receive" style="shape=message;html=1;labelPosition=center;verticalLabelPosition=middle;align=center;verticalAlign=bottom;fontSize=10;fillColor=none;strokeColor=#000057;labelBackgroundColor=none;fontColor=#0c032b;fontFamily=Verdana;fontStyle=1;strokeWidth=2;" parent="1" vertex="1">
          <mxGeometry x="221" y="163" width="50" height="30" as="geometry" />
        </mxCell>
        <mxCell id="TlXBh9cTbxRTWTGTwzo7-24" style="edgeStyle=orthogonalEdgeStyle;rounded=0;orthogonalLoop=1;jettySize=auto;html=1;exitX=1;exitY=0.5;exitDx=0;exitDy=0;entryX=0;entryY=0.5;entryDx=0;entryDy=0;strokeColor=#000057;labelBackgroundColor=none;fontColor=#0c032b;fontFamily=Verdana;fontStyle=1" parent="1" source="TlXBh9cTbxRTWTGTwzo7-19" target="TlXBh9cTbxRTWTGTwzo7-39" edge="1">
          <mxGeometry relative="1" as="geometry">
            <mxPoint x="621" y="323" as="targetPoint" />
          </mxGeometry>
        </mxCell>
        <mxCell id="TlXBh9cTbxRTWTGTwzo7-25" value="YES" style="edgeLabel;html=1;align=center;verticalAlign=bottom;resizable=0;points=[];labelBackgroundColor=none;strokeColor=#000057;fontColor=#0c032b;fontFamily=Verdana;fontStyle=1" parent="TlXBh9cTbxRTWTGTwzo7-24" vertex="1" connectable="0">
          <mxGeometry x="0.1432" y="-2" relative="1" as="geometry">
            <mxPoint as="offset" />
          </mxGeometry>
        </mxCell>
        <mxCell id="TlXBh9cTbxRTWTGTwzo7-32" style="edgeStyle=orthogonalEdgeStyle;rounded=0;orthogonalLoop=1;jettySize=auto;html=1;exitX=0;exitY=0.5;exitDx=0;exitDy=0;entryX=1;entryY=0.5;entryDx=0;entryDy=0;strokeColor=#000057;labelBackgroundColor=none;fontColor=#0c032b;fontFamily=Verdana;fontStyle=1" parent="1" source="TlXBh9cTbxRTWTGTwzo7-19" target="7a84cebc1def654-2" edge="1">
          <mxGeometry relative="1" as="geometry" />
        </mxCell>
        <mxCell id="TlXBh9cTbxRTWTGTwzo7-33" value="NO" style="edgeLabel;html=1;align=center;verticalAlign=middle;resizable=0;points=[];labelBackgroundColor=none;strokeColor=#000057;fontColor=#0c032b;fontFamily=Verdana;fontStyle=1" parent="TlXBh9cTbxRTWTGTwzo7-32" vertex="1" connectable="0">
          <mxGeometry x="-0.4069" y="4" relative="1" as="geometry">
            <mxPoint as="offset" />
          </mxGeometry>
        </mxCell>
        <mxCell id="TlXBh9cTbxRTWTGTwzo7-19" value="APPROVAL?" style="rhombus;whiteSpace=wrap;html=1;verticalAlign=middle;fontSize=10;fillColor=#fff2cc;strokeColor=#d6b656;labelBackgroundColor=none;fontFamily=Verdana;fontStyle=1;strokeWidth=3;gradientColor=#ffd966;" parent="1" vertex="1">
          <mxGeometry x="206" y="263" width="80" height="81" as="geometry" />
        </mxCell>
        <mxCell id="TlXBh9cTbxRTWTGTwzo7-29" value="Request" style="shape=message;html=1;labelPosition=center;verticalLabelPosition=middle;align=center;verticalAlign=bottom;fontSize=10;fillColor=none;strokeColor=#000057;labelBackgroundColor=none;fontColor=#0c032b;fontFamily=Verdana;fontStyle=1;strokeWidth=2;" parent="1" vertex="1">
          <mxGeometry x="61" y="163" width="50" height="30" as="geometry" />
        </mxCell>
        <mxCell id="TlXBh9cTbxRTWTGTwzo7-35" style="edgeStyle=orthogonalEdgeStyle;rounded=0;orthogonalLoop=1;jettySize=auto;html=1;exitX=0.5;exitY=1;exitDx=0;exitDy=0;entryX=0.5;entryY=0;entryDx=0;entryDy=0;strokeColor=#000057;labelBackgroundColor=none;fontColor=#0c032b;fontFamily=Verdana;fontStyle=1" parent="1" source="TlXBh9cTbxRTWTGTwzo7-29" target="7a84cebc1def654-2" edge="1">
          <mxGeometry relative="1" as="geometry" />
        </mxCell>
        <mxCell id="kl8nC4WxNrGqv6YTz2aJ-9" style="edgeStyle=orthogonalEdgeStyle;rounded=0;orthogonalLoop=1;jettySize=auto;html=1;exitX=1;exitY=0.5;exitDx=0;exitDy=0;entryX=0;entryY=0.5;entryDx=0;entryDy=0;" edge="1" parent="1" source="TlXBh9cTbxRTWTGTwzo7-39" target="TlXBh9cTbxRTWTGTwzo7-40">
          <mxGeometry relative="1" as="geometry" />
        </mxCell>
        <mxCell id="TlXBh9cTbxRTWTGTwzo7-39" value="DISPATCH LPO" style="shape=parallelogram;perimeter=parallelogramPerimeter;whiteSpace=wrap;html=1;fixedSize=1;fillColor=#fff2cc;strokeColor=#d6b656;labelBackgroundColor=none;fontFamily=Verdana;fontStyle=1;strokeWidth=3;gradientColor=#ffd966;" parent="1" vertex="1">
          <mxGeometry x="321" y="273" width="150" height="60" as="geometry" />
        </mxCell>
        <mxCell id="kl8nC4WxNrGqv6YTz2aJ-10" style="edgeStyle=orthogonalEdgeStyle;rounded=0;orthogonalLoop=1;jettySize=auto;html=1;exitX=1;exitY=0.5;exitDx=0;exitDy=0;entryX=0;entryY=0.5;entryDx=0;entryDy=0;" edge="1" parent="1" source="TlXBh9cTbxRTWTGTwzo7-40" target="TlXBh9cTbxRTWTGTwzo7-47">
          <mxGeometry relative="1" as="geometry" />
        </mxCell>
        <mxCell id="TlXBh9cTbxRTWTGTwzo7-40" value="MERCHANDISE SENT TO DISPATCH LOCATION" style="shape=trapezoid;perimeter=trapezoidPerimeter;whiteSpace=wrap;html=1;fixedSize=1;verticalAlign=middle;fillColor=#fff2cc;strokeColor=#d6b656;labelBackgroundColor=none;fontFamily=Verdana;fontStyle=1;fontSize=11;strokeWidth=3;gradientColor=#ffd966;" parent="1" vertex="1">
          <mxGeometry x="480" y="268.5" width="180" height="70" as="geometry" />
        </mxCell>
        <mxCell id="104F3mkMCa6RaN5nMMO5-23" style="edgeStyle=orthogonalEdgeStyle;rounded=0;orthogonalLoop=1;jettySize=auto;html=1;exitX=0.5;exitY=0;exitDx=0;exitDy=0;entryX=1;entryY=0.25;entryDx=0;entryDy=0;" parent="1" source="kl8nC4WxNrGqv6YTz2aJ-6" target="104F3mkMCa6RaN5nMMO5-6" edge="1">
          <mxGeometry relative="1" as="geometry" />
        </mxCell>
        <mxCell id="kl8nC4WxNrGqv6YTz2aJ-1" value="D.NOTE" style="edgeLabel;html=1;align=center;verticalAlign=middle;resizable=0;points=[];" vertex="1" connectable="0" parent="104F3mkMCa6RaN5nMMO5-23">
          <mxGeometry x="-0.1294" y="-2" relative="1" as="geometry">
            <mxPoint as="offset" />
          </mxGeometry>
        </mxCell>
        <mxCell id="TlXBh9cTbxRTWTGTwzo7-47" value="DISPATCH HANDLER (SYLVIA) RECEIVES, VERIFIES AND SIGNS D.NOTE" style="rounded=1;whiteSpace=wrap;html=1;fillColor=#000033;strokeColor=#000057;labelBackgroundColor=none;fontColor=#f7f7f8;fontFamily=Verdana;fontStyle=1;fontSize=11;strokeWidth=3;gradientColor=default;" parent="1" vertex="1">
          <mxGeometry x="682" y="266" width="140" height="75" as="geometry" />
        </mxCell>
        <mxCell id="TlXBh9cTbxRTWTGTwzo7-50" value="DISPATCH PREPARATION: Packaging &amp;amp; Labelling" style="rounded=1;whiteSpace=wrap;html=1;fillColor=#000033;strokeColor=#000057;labelBackgroundColor=none;fontColor=#f3f2f8;fontFamily=Verdana;fontStyle=1;strokeWidth=3;" parent="1" vertex="1">
          <mxGeometry x="331" y="391" width="140" height="75" as="geometry" />
        </mxCell>
        <mxCell id="TlXBh9cTbxRTWTGTwzo7-52" style="edgeStyle=orthogonalEdgeStyle;rounded=0;orthogonalLoop=1;jettySize=auto;html=1;exitX=0.75;exitY=0;exitDx=0;exitDy=0;entryX=0;entryY=0.7;entryDx=0;entryDy=0;strokeColor=#000057;labelBackgroundColor=none;fontColor=#0c032b;fontFamily=Verdana;fontStyle=1" parent="1" source="7a84cebc1def654-2" target="7a84cebc1def654-4" edge="1">
          <mxGeometry relative="1" as="geometry" />
        </mxCell>
        <mxCell id="TlXBh9cTbxRTWTGTwzo7-57" style="edgeStyle=orthogonalEdgeStyle;rounded=0;orthogonalLoop=1;jettySize=auto;html=1;exitX=1;exitY=0.5;exitDx=0;exitDy=0;entryX=0;entryY=0.5;entryDx=0;entryDy=0;strokeColor=#000057;labelBackgroundColor=none;fontColor=#0c032b;fontFamily=Verdana;fontStyle=1" parent="1" source="TlXBh9cTbxRTWTGTwzo7-54" target="TlXBh9cTbxRTWTGTwzo7-56" edge="1">
          <mxGeometry relative="1" as="geometry" />
        </mxCell>
        <mxCell id="TlXBh9cTbxRTWTGTwzo7-54" value="ASSIGNING DESIGNATED RECIPIENT IN OUTLETS" style="rounded=1;whiteSpace=wrap;html=1;fillColor=#000033;strokeColor=#000057;labelBackgroundColor=none;fontColor=#f3f2f8;fontFamily=Verdana;fontStyle=1;strokeWidth=3;" parent="1" vertex="1">
          <mxGeometry x="500" y="386" width="140" height="75" as="geometry" />
        </mxCell>
        <mxCell id="TlXBh9cTbxRTWTGTwzo7-59" style="edgeStyle=orthogonalEdgeStyle;rounded=0;orthogonalLoop=1;jettySize=auto;html=1;exitX=1;exitY=0.5;exitDx=0;exitDy=0;entryX=0;entryY=0.5;entryDx=0;entryDy=0;strokeColor=#000057;labelBackgroundColor=none;fontColor=#0c032b;fontFamily=Verdana;fontStyle=1" parent="1" source="TlXBh9cTbxRTWTGTwzo7-56" target="TlXBh9cTbxRTWTGTwzo7-58" edge="1">
          <mxGeometry relative="1" as="geometry" />
        </mxCell>
        <mxCell id="TlXBh9cTbxRTWTGTwzo7-56" value="COURIER COLLECTION" style="rounded=1;whiteSpace=wrap;html=1;fillColor=#dae8fc;strokeColor=#6c8ebf;labelBackgroundColor=none;fontFamily=Verdana;fontStyle=1;strokeWidth=3;gradientColor=#7ea6e0;" parent="1" vertex="1">
          <mxGeometry x="700" y="386" width="140" height="75" as="geometry" />
        </mxCell>
        <mxCell id="TlXBh9cTbxRTWTGTwzo7-69" style="edgeStyle=orthogonalEdgeStyle;rounded=0;orthogonalLoop=1;jettySize=auto;html=1;exitX=0.25;exitY=1;exitDx=0;exitDy=0;entryX=0.5;entryY=0;entryDx=0;entryDy=0;strokeColor=#000057;labelBackgroundColor=none;fontColor=#0c032b;fontFamily=Verdana;fontStyle=1" parent="1" source="TlXBh9cTbxRTWTGTwzo7-58" target="TlXBh9cTbxRTWTGTwzo7-68" edge="1">
          <mxGeometry relative="1" as="geometry">
            <Array as="points">
              <mxPoint x="900" y="550" />
              <mxPoint x="709" y="550" />
              <mxPoint x="709" y="560" />
              <mxPoint x="86" y="560" />
            </Array>
          </mxGeometry>
        </mxCell>
        <mxCell id="104F3mkMCa6RaN5nMMO5-8" style="edgeStyle=orthogonalEdgeStyle;rounded=0;orthogonalLoop=1;jettySize=auto;html=1;exitX=0.5;exitY=1;exitDx=0;exitDy=0;entryX=0.5;entryY=0;entryDx=0;entryDy=0;strokeColor=#000057;labelBackgroundColor=none;fontColor=#0c032b;fontFamily=Verdana;fontStyle=1" parent="1" source="TlXBh9cTbxRTWTGTwzo7-58" target="104F3mkMCa6RaN5nMMO5-6" edge="1">
          <mxGeometry relative="1" as="geometry" />
        </mxCell>
        <mxCell id="TlXBh9cTbxRTWTGTwzo7-58" value="COPY OF &lt;br&gt;SHIPMENT &lt;br&gt;WAYBILLS" style="shape=parallelogram;perimeter=parallelogramPerimeter;whiteSpace=wrap;html=1;fixedSize=1;fillColor=#dae8fc;strokeColor=#6c8ebf;labelBackgroundColor=none;fontFamily=Verdana;fontSize=11;fontStyle=1;strokeWidth=3;gradientColor=#7ea6e0;" parent="1" vertex="1">
          <mxGeometry x="865" y="391" width="140" height="70" as="geometry" />
        </mxCell>
        <mxCell id="TlXBh9cTbxRTWTGTwzo7-60" value="SHARED STORAGE" style="shape=cylinder3;whiteSpace=wrap;html=1;boundedLbl=1;backgroundOutline=1;size=15;fillColor=#000033;strokeColor=#b9b9cf;labelBackgroundColor=none;fontColor=#F5F3F3;fontFamily=Verdana;fontStyle=1;fontSize=11;strokeWidth=3;" parent="1" vertex="1">
          <mxGeometry x="900" y="100" width="70" height="80" as="geometry" />
        </mxCell>
        <mxCell id="104F3mkMCa6RaN5nMMO5-1" style="edgeStyle=orthogonalEdgeStyle;rounded=0;orthogonalLoop=1;jettySize=auto;html=1;exitX=1;exitY=0.5;exitDx=0;exitDy=0;entryX=0;entryY=0.5;entryDx=0;entryDy=0;strokeColor=#000057;labelBackgroundColor=none;fontColor=#0c032b;fontFamily=Verdana;fontStyle=1" parent="1" source="TlXBh9cTbxRTWTGTwzo7-68" target="TlXBh9cTbxRTWTGTwzo7-70" edge="1">
          <mxGeometry relative="1" as="geometry" />
        </mxCell>
        <mxCell id="TlXBh9cTbxRTWTGTwzo7-68" value="MERCHANDISE DISPATCHED TO OUTLETS" style="shape=trapezoid;perimeter=trapezoidPerimeter;whiteSpace=wrap;html=1;fixedSize=1;fillColor=#dae8fc;strokeColor=#6c8ebf;labelBackgroundColor=none;fontFamily=Verdana;fontStyle=1;strokeWidth=3;gradientColor=#7ea6e0;" parent="1" vertex="1">
          <mxGeometry x="16" y="623" width="140" height="60" as="geometry" />
        </mxCell>
        <mxCell id="104F3mkMCa6RaN5nMMO5-4" style="edgeStyle=orthogonalEdgeStyle;rounded=0;orthogonalLoop=1;jettySize=auto;html=1;exitX=1;exitY=0.5;exitDx=0;exitDy=0;entryX=0;entryY=0.5;entryDx=0;entryDy=0;strokeColor=#000057;labelBackgroundColor=none;fontColor=#0c032b;fontFamily=Verdana;fontStyle=1" parent="1" source="TlXBh9cTbxRTWTGTwzo7-70" target="104F3mkMCa6RaN5nMMO5-3" edge="1">
          <mxGeometry relative="1" as="geometry" />
        </mxCell>
        <mxCell id="TlXBh9cTbxRTWTGTwzo7-70" value="RECEIVED BY DESIGNATED OUTLET RECIPIENT" style="rounded=1;whiteSpace=wrap;html=1;fillColor=#d5e8d4;strokeColor=#82b366;labelBackgroundColor=none;fontFamily=Verdana;fontStyle=1;strokeWidth=3;gradientColor=#97d077;" parent="1" vertex="1">
          <mxGeometry x="201" y="590" width="120" height="70" as="geometry" />
        </mxCell>
        <mxCell id="104F3mkMCa6RaN5nMMO5-7" value="" style="edgeStyle=orthogonalEdgeStyle;rounded=0;orthogonalLoop=1;jettySize=auto;html=1;strokeColor=#000057;labelBackgroundColor=none;fontColor=#0c032b;fontFamily=Verdana;fontStyle=1" parent="1" source="104F3mkMCa6RaN5nMMO5-3" target="104F3mkMCa6RaN5nMMO5-6" edge="1">
          <mxGeometry relative="1" as="geometry" />
        </mxCell>
        <mxCell id="104F3mkMCa6RaN5nMMO5-3" value="COPY OF SIGNED AND STAMPED D.NOTE" style="shape=parallelogram;perimeter=parallelogramPerimeter;whiteSpace=wrap;html=1;fixedSize=1;fillColor=#d5e8d4;strokeColor=#82b366;labelBackgroundColor=none;fontFamily=Verdana;fontStyle=1;fontSize=10;strokeWidth=3;gradientColor=#97d077;" parent="1" vertex="1">
          <mxGeometry x="370" y="590" width="165" height="70" as="geometry" />
        </mxCell>
        <mxCell id="104F3mkMCa6RaN5nMMO5-6" value="DISPATCH HANDLER ACTIVITY TRACKING" style="rounded=1;whiteSpace=wrap;html=1;fillColor=#000033;strokeColor=#000057;labelBackgroundColor=none;fontColor=#f7f7f8;fontFamily=Verdana;fontStyle=1;strokeWidth=3;" parent="1" vertex="1">
          <mxGeometry x="872" y="570" width="126" height="69" as="geometry" />
        </mxCell>
        <mxCell id="104F3mkMCa6RaN5nMMO5-9" style="edgeStyle=orthogonalEdgeStyle;rounded=0;orthogonalLoop=1;jettySize=auto;html=1;exitX=1;exitY=0.5;exitDx=0;exitDy=0;entryX=1;entryY=0.5;entryDx=0;entryDy=0;entryPerimeter=0;strokeColor=#000057;labelBackgroundColor=none;fontColor=#0c032b;fontFamily=Verdana;fontStyle=1" parent="1" source="104F3mkMCa6RaN5nMMO5-6" target="TlXBh9cTbxRTWTGTwzo7-60" edge="1">
          <mxGeometry relative="1" as="geometry">
            <Array as="points">
              <mxPoint x="1090" y="605" />
              <mxPoint x="1090" y="140" />
            </Array>
          </mxGeometry>
        </mxCell>
        <mxCell id="kl8nC4WxNrGqv6YTz2aJ-4" style="edgeStyle=orthogonalEdgeStyle;rounded=0;orthogonalLoop=1;jettySize=auto;html=1;exitX=1;exitY=0.3333333333333333;exitDx=0;exitDy=0;exitPerimeter=0;entryX=0;entryY=0.5;entryDx=0;entryDy=0;" edge="1" parent="1" source="104F3mkMCa6RaN5nMMO5-12" target="kl8nC4WxNrGqv6YTz2aJ-3">
          <mxGeometry relative="1" as="geometry" />
        </mxCell>
        <mxCell id="104F3mkMCa6RaN5nMMO5-12" value="MERCHANDISER" style="shape=umlActor;verticalLabelPosition=bottom;verticalAlign=top;html=1;outlineConnect=0;fillColor=#000033;strokeColor=#000057;labelBackgroundColor=none;fontColor=#0c032b;fontFamily=Verdana;fontStyle=1;strokeWidth=3;" parent="1" vertex="1">
          <mxGeometry x="221" y="710" width="30" height="60" as="geometry" />
        </mxCell>
        <mxCell id="104F3mkMCa6RaN5nMMO5-13" style="edgeStyle=orthogonalEdgeStyle;rounded=0;orthogonalLoop=1;jettySize=auto;html=1;exitX=0.5;exitY=1;exitDx=0;exitDy=0;entryX=0.5;entryY=0;entryDx=0;entryDy=0;entryPerimeter=0;strokeColor=#000057;labelBackgroundColor=none;fontColor=#0c032b;fontFamily=Verdana;fontStyle=1" parent="1" source="TlXBh9cTbxRTWTGTwzo7-70" target="104F3mkMCa6RaN5nMMO5-12" edge="1">
          <mxGeometry relative="1" as="geometry" />
        </mxCell>
        <mxCell id="104F3mkMCa6RaN5nMMO5-16" value="" style="group;strokeWidth=2;strokeColor=#000057;rounded=1;fillColor=#000033;fontColor=#f0efef;" parent="1" vertex="1" connectable="0">
          <mxGeometry x="23.5" y="258.5" width="125" height="90" as="geometry" />
        </mxCell>
        <mxCell id="7a84cebc1def654-2" value="DISPATCH COSTING BY PROJECT MANAGER" style="shape=ext;rounded=1;html=1;whiteSpace=wrap;strokeColor=#000057;labelBackgroundColor=none;fontColor=#eaeaeb;fontFamily=Verdana;fontStyle=1;verticalAlign=bottom;fillColor=none;" parent="104F3mkMCa6RaN5nMMO5-16" vertex="1">
          <mxGeometry width="125" height="90" as="geometry" />
        </mxCell>
        <mxCell id="TlXBh9cTbxRTWTGTwzo7-12" value="" style="shape=message;whiteSpace=wrap;html=1;fillColor=none;strokeColor=#efeff5;labelBackgroundColor=none;fontColor=#0c032b;fontFamily=Verdana;fontStyle=1" parent="104F3mkMCa6RaN5nMMO5-16" vertex="1">
          <mxGeometry x="11.180000000000007" y="9.501111111111072" width="26.32" height="17.377777777777776" as="geometry" />
        </mxCell>
        <mxCell id="104F3mkMCa6RaN5nMMO5-29" value="" style="group" parent="1" vertex="1" connectable="0">
          <mxGeometry x="960" y="750" width="80" height="69" as="geometry" />
        </mxCell>
        <mxCell id="104F3mkMCa6RaN5nMMO5-25" value="COURRIER" style="rounded=0;whiteSpace=wrap;html=1;fillColor=#dae8fc;gradientColor=#7ea6e0;strokeColor=#6c8ebf;" parent="104F3mkMCa6RaN5nMMO5-29" vertex="1">
          <mxGeometry y="49" width="80" height="20" as="geometry" />
        </mxCell>
        <mxCell id="104F3mkMCa6RaN5nMMO5-26" value="SMOLLAN" style="rounded=0;whiteSpace=wrap;html=1;fillColor=#000033;fontColor=#ffffff;" parent="104F3mkMCa6RaN5nMMO5-29" vertex="1">
          <mxGeometry width="80" height="20" as="geometry" />
        </mxCell>
        <mxCell id="104F3mkMCa6RaN5nMMO5-27" value="EABL" style="rounded=0;whiteSpace=wrap;html=1;fillColor=#fff2cc;gradientColor=#ffd966;strokeColor=#d6b656;" parent="104F3mkMCa6RaN5nMMO5-29" vertex="1">
          <mxGeometry y="24" width="80" height="20" as="geometry" />
        </mxCell>
        <mxCell id="kl8nC4WxNrGqv6YTz2aJ-2" style="edgeStyle=orthogonalEdgeStyle;rounded=0;orthogonalLoop=1;jettySize=auto;html=1;exitX=0;exitY=0.5;exitDx=0;exitDy=0;exitPerimeter=0;entryX=1.004;entryY=0.405;entryDx=0;entryDy=0;entryPerimeter=0;" edge="1" parent="1" source="TlXBh9cTbxRTWTGTwzo7-60" target="TlXBh9cTbxRTWTGTwzo7-36">
          <mxGeometry relative="1" as="geometry" />
        </mxCell>
        <mxCell id="kl8nC4WxNrGqv6YTz2aJ-5" style="edgeStyle=orthogonalEdgeStyle;rounded=0;orthogonalLoop=1;jettySize=auto;html=1;exitX=1;exitY=0.5;exitDx=0;exitDy=0;" edge="1" parent="1" source="kl8nC4WxNrGqv6YTz2aJ-3" target="104F3mkMCa6RaN5nMMO5-6">
          <mxGeometry relative="1" as="geometry" />
        </mxCell>
        <mxCell id="kl8nC4WxNrGqv6YTz2aJ-3" value="DEPLETIONS UPDATE TO T.L" style="rounded=1;whiteSpace=wrap;html=1;" vertex="1" parent="1">
          <mxGeometry x="311" y="710" width="120" height="60" as="geometry" />
        </mxCell>
        <mxCell id="kl8nC4WxNrGqv6YTz2aJ-6" value="D.NOTE" style="shape=parallelogram;perimeter=parallelogramPerimeter;whiteSpace=wrap;html=1;fixedSize=1;" vertex="1" parent="1">
          <mxGeometry x="865" y="273.5" width="120" height="60" as="geometry" />
        </mxCell>
        <mxCell id="kl8nC4WxNrGqv6YTz2aJ-11" style="edgeStyle=orthogonalEdgeStyle;rounded=0;orthogonalLoop=1;jettySize=auto;html=1;exitX=1;exitY=0.5;exitDx=0;exitDy=0;entryX=0.033;entryY=0.492;entryDx=0;entryDy=0;entryPerimeter=0;" edge="1" parent="1" source="TlXBh9cTbxRTWTGTwzo7-47" target="kl8nC4WxNrGqv6YTz2aJ-6">
          <mxGeometry relative="1" as="geometry" />
        </mxCell>
        <mxCell id="kl8nC4WxNrGqv6YTz2aJ-14" style="edgeStyle=orthogonalEdgeStyle;rounded=0;orthogonalLoop=1;jettySize=auto;html=1;exitX=1;exitY=0.5;exitDx=0;exitDy=0;exitPerimeter=0;entryX=0;entryY=0.5;entryDx=0;entryDy=0;" edge="1" parent="1" source="kl8nC4WxNrGqv6YTz2aJ-13" target="TlXBh9cTbxRTWTGTwzo7-50">
          <mxGeometry relative="1" as="geometry" />
        </mxCell>
        <mxCell id="kl8nC4WxNrGqv6YTz2aJ-16" value="YES" style="edgeLabel;html=1;align=center;verticalAlign=middle;resizable=0;points=[];" vertex="1" connectable="0" parent="kl8nC4WxNrGqv6YTz2aJ-14">
          <mxGeometry x="-0.2889" y="-4" relative="1" as="geometry">
            <mxPoint y="1" as="offset" />
          </mxGeometry>
        </mxCell>
        <mxCell id="kl8nC4WxNrGqv6YTz2aJ-13" value="ALLOCATED?" style="strokeWidth=2;html=1;shape=mxgraph.flowchart.decision;whiteSpace=wrap;" vertex="1" parent="1">
          <mxGeometry x="189.5" y="389.25" width="96.5" height="78.5" as="geometry" />
        </mxCell>
      </root>
    </mxGraphModel>
  </diagram>
</mxfile>
